<svg xmlns="http://www.w3.org/2000/svg" viewBox="0 0 221 223" width="221" height="223">
<path fill="#591919" d="M 10.250 74.866 L 4 77.315 4 140.225 C 4 199.669, 4.096 203.106, 5.750 202.619 C 10.337 201.267, 31.694 200.879, 43.500 201.933 C 65.477 203.896, 93.716 210.733, 106.246 217.125 C 109.602 218.838, 110.308 218.893, 112.755 217.633 C 122.149 212.799, 145.828 206.179, 163.500 203.447 C 174.505 201.746, 196.328 201.059, 209.500 202 L 216.500 202.500 216.758 140.198 L 217.015 77.897 211.479 75.448 C 202.216 71.352, 202.867 69.480, 203.203 99.250 C 203.490 124.631, 203.575 125.604, 205.750 128.654 C 208.804 132.936, 208.704 136.722, 205.500 138.182 L 203 139.321 202.844 165.911 C 202.759 180.535, 202.779 193.531, 202.889 194.790 C 203.081 196.992, 202.883 197.054, 197.794 196.387 C 194.882 196.006, 191.497 195.042, 190.272 194.246 C 188.609 193.166, 186.451 192.966, 181.772 193.457 C 157.347 196.020, 133.393 203.351, 117 213.279 C 110.522 217.202, 110.490 217.209, 107.500 215.470 C 86.758 203.407, 63.504 195.942, 39 193.480 C 32.973 192.874, 32.281 193.015, 29.500 195.412 C 27.097 197.483, 25.455 197.998, 21.250 197.999 C 16.167 198, 15.179 197.440, 16.750 195.450 C 17.163 194.928, 17.367 182.056, 17.205 166.847 L 16.911 139.194 14.566 138.606 C 10.840 137.671, 10.689 135.212, 13.997 129.352 L 17.033 123.972 16.767 98.194 L 16.500 72.416 10.250 74.866 M 84 74.417 C 84 75.978, 93.953 82.147, 95.213 81.368 C 95.646 81.101, 96 80.064, 96 79.064 C 96 77.839, 94.390 76.554, 91.065 75.123 C 85.262 72.627, 84 72.501, 84 74.417 M 127.500 75.170 C 122.292 77.880, 122.359 77.788, 124.221 79.649 C 125.690 81.119, 126.176 81.013, 130.085 78.376 C 137.534 73.350, 135.603 70.954, 127.500 75.170 M 103.939 85.113 C 103.082 86.716, 103.187 87.549, 104.420 88.912 C 105.775 90.409, 106.002 94.416, 106.013 117.079 C 106.029 148.866, 107.641 191.931, 108.937 195.165 C 109.489 196.541, 109.899 196.863, 109.937 195.950 C 109.971 195.097, 110.428 188.572, 110.951 181.450 C 111.474 174.327, 112.153 150.741, 112.460 129.035 C 112.934 95.496, 113.241 89.444, 114.509 88.735 C 116.447 87.651, 116.433 84.103, 114.487 83.357 C 113.655 83.037, 112.292 83.343, 111.458 84.035 C 110.305 84.992, 109.353 85.026, 107.489 84.177 C 105.392 83.222, 104.879 83.357, 103.939 85.113" stroke="none" fill="#591919" fill-rule="evenodd"/>
<path fill="#415C5B" d="M 108.808 6.176 C 107.973 7.454, 106.339 10.365, 105.178 12.645 C 103.075 16.774, 103.038 16.793, 96.033 17.497 C 92.165 17.885, 89 18.481, 89 18.820 C 89 19.159, 91.223 21.701, 93.940 24.469 L 98.880 29.500 97.597 36.250 C 96.891 39.962, 96.684 43, 97.138 43 C 97.591 43, 100.805 41.598, 104.280 39.884 L 110.599 36.769 116.901 39.950 C 120.367 41.699, 123.358 42.975, 123.549 42.784 C 123.740 42.594, 123.366 39.348, 122.720 35.572 L 121.544 28.707 126.772 24.024 C 129.647 21.448, 132 19.092, 132 18.788 C 132 18.484, 128.734 17.929, 124.741 17.555 L 117.482 16.875 113.905 10.364 C 110.351 3.896, 110.317 3.868, 108.808 6.176 M 156 31.741 C 153.444 36.583, 152.124 37.380, 144.809 38.502 L 141.119 39.068 145.423 43.035 L 149.726 47.003 148.799 52.104 C 148.289 54.910, 148.081 57.414, 148.337 57.670 C 148.592 57.925, 150.987 57.027, 153.658 55.673 L 158.515 53.212 163.008 55.561 C 165.478 56.853, 167.889 57.930, 168.365 57.955 C 168.841 57.980, 168.909 55.430, 168.517 52.289 L 167.803 46.579 172.141 42.880 L 176.479 39.181 172.490 38.533 C 164.280 37.199, 164.072 37.076, 161.491 31.983 C 160.103 29.242, 158.861 27.001, 158.733 27.003 C 158.605 27.004, 157.375 29.137, 156 31.741 M 58.792 32.491 C 56.949 36.285, 56.058 37.070, 53.055 37.549 C 43.937 39.002, 44.217 38.623, 48.781 43.307 C 52.837 47.470, 52.860 47.536, 51.932 52.416 C 51.419 55.120, 51.179 57.512, 51.400 57.733 C 51.621 57.954, 53.987 57.027, 56.658 55.673 L 61.515 53.212 66.008 55.561 C 72.590 59.002, 72.845 58.863, 71.738 52.440 L 70.780 46.880 74.967 43.296 C 79.581 39.346, 79.141 38.043, 73.184 38.015 C 68.494 37.994, 66.622 36.706, 64.527 32.061 C 63.520 29.827, 62.309 28, 61.835 28 C 61.362 28, 59.992 30.021, 58.792 32.491 M 101.696 68.750 C 97.443 78.043, 95.366 81.155, 89.160 87.534 C 83.536 93.314, 73.034 100, 69.578 100 C 68.676 100, 65.139 99.056, 61.718 97.902 C 48.552 93.459, 34.997 99.686, 22.642 115.854 C 16.617 123.739, 10.843 134.427, 11.576 136.337 C 12.134 137.791, 15.739 139.641, 16.457 138.841 C 16.625 138.654, 18.973 135.730, 21.675 132.344 C 30.186 121.675, 38.709 115.842, 47.903 114.390 L 52.307 113.695 51.748 121.598 C 51.440 125.944, 50.154 132.650, 48.890 136.500 C 45.809 145.885, 36.088 164.853, 26.957 179.296 C 16.536 195.780, 16.155 196.409, 16.073 197.250 C 16.033 197.662, 18.362 197.999, 21.250 197.999 C 25.263 197.998, 27.106 197.468, 29.072 195.749 C 30.486 194.512, 38.713 184.593, 47.353 173.707 C 55.993 162.820, 63.722 153.660, 64.530 153.350 C 66.498 152.595, 75.427 157.101, 75.781 159.028 C 76.042 160.453, 68.043 173.157, 60.899 182.661 C 59.179 184.949, 58.005 187.199, 58.290 187.661 C 58.575 188.122, 61.088 188.345, 63.875 188.155 C 68.915 187.813, 68.986 187.760, 77.713 177.814 C 89.675 164.181, 94.091 157.738, 94.728 152.993 C 95.404 147.953, 93.602 145.128, 87.724 142.010 C 83.538 139.789, 83.263 139.393, 83.585 136.065 C 83.775 134.104, 84.149 129.195, 84.415 125.156 C 84.990 116.442, 88.226 108.802, 95.744 98.410 C 101.131 90.964, 109 76.719, 109 74.415 C 109 73.637, 109.450 73, 110 73 C 110.550 73, 111 73.616, 111 74.368 C 111 76.826, 117.419 88.277, 125.088 99.500 C 133.664 112.050, 135.729 117.897, 136.162 130.856 L 136.441 139.213 133.471 140.725 C 124.705 145.188, 123.078 150.169, 127.758 158.212 C 131.690 164.971, 149.776 185.705, 152.338 186.393 C 155.618 187.273, 162 187.112, 162 186.149 C 162 185.681, 159.796 182.387, 157.103 178.829 C 150.952 170.705, 145.490 162.175, 144.579 159.272 C 144.010 157.460, 144.498 156.667, 147.190 155.026 C 149.010 153.916, 151.919 153.006, 153.654 153.004 C 156.557 153, 158.095 154.609, 172.957 173.193 C 181.839 184.299, 189.870 193.909, 190.803 194.549 C 191.736 195.188, 194.863 196.017, 197.750 196.390 C 201.878 196.924, 203 196.774, 203 195.687 C 203 194.927, 200.460 190.299, 197.356 185.403 C 177.082 153.421, 169.379 136.556, 168.286 121.750 L 167.714 114 170.346 114 C 178.185 114, 190.755 122.014, 197.966 131.608 C 200.401 134.848, 202.707 137.879, 203.090 138.343 C 203.472 138.806, 204.734 138.678, 205.893 138.057 C 208.510 136.656, 208.651 132.776, 206.214 129.154 C 205.232 127.694, 203.845 125.335, 203.131 123.912 C 200.486 118.630, 189.304 106.495, 183.307 102.397 C 174.976 96.705, 168.220 95.268, 160.284 97.499 C 150.163 100.345, 149.613 100.344, 143.944 97.471 C 141 95.980, 137.065 93.576, 135.199 92.130 C 130.457 88.454, 122.451 77.732, 118.913 70.318 C 117.275 66.886, 115.536 63.831, 115.048 63.529 C 114.559 63.228, 113.274 64.107, 112.191 65.484 L 110.222 67.988 108.588 65.494 C 106.113 61.717, 104.584 62.440, 101.696 68.750 M 59.400 75.400 C 56.626 78.174, 56 79.564, 56 82.950 C 56 88.596, 58.185 92.385, 62.666 94.512 C 66.025 96.106, 66.842 96.146, 70.428 94.897 C 74.885 93.343, 79 88.234, 79 84.253 C 79 80.385, 75.991 75.047, 72.915 73.456 C 67.952 70.889, 63.232 71.568, 59.400 75.400 M 148.325 73.459 C 142.847 75.842, 139.592 83.420, 142.024 88.128 C 145.549 94.950, 150.994 97.283, 157.272 94.660 C 166.029 91.001, 166.263 77.725, 157.643 73.635 C 153.521 71.679, 152.464 71.659, 148.325 73.459" stroke="none" fill="#415C5B" fill-rule="evenodd"/>
</svg>
