<svg xmlns="http://www.w3.org/2000/svg" width="888" height="897" viewBox="0 0 888 897" version="1.1">
	<path d="M 427.448 26.259 L 413.641 52.664 385.571 56.438 C 353.074 60.808, 351.825 61.017, 352.211 62.011 C 352.370 62.421, 362.175 71.605, 374 82.421 C 385.825 93.237, 395.643 102.496, 395.818 102.996 C 395.993 103.497, 393.814 116.562, 390.977 132.029 C 388.140 147.497, 386.015 160.348, 386.255 160.588 C 386.495 160.828, 399.097 154.923, 414.259 147.466 L 441.828 133.907 468.907 147.453 C 483.800 154.904, 496.360 161, 496.818 161 C 497.275 161, 495.259 147.883, 492.338 131.851 C 487.866 107.310, 487.246 102.528, 488.416 101.601 C 492.084 98.695, 531.979 61.645, 531.719 61.385 C 531.555 61.222, 517.714 59.221, 500.961 56.940 C 484.207 54.658, 470.185 52.501, 469.801 52.146 C 469.416 51.791, 463.206 40.250, 456 26.500 C 448.794 12.750, 442.528 1.130, 442.076 0.677 C 441.624 0.224, 435.041 11.736, 427.448 26.259 M 229.093 117.750 C 223.407 128.613, 218.434 137.853, 218.043 138.284 C 217.652 138.715, 206.683 140.500, 193.666 142.251 C 180.650 144.002, 170 145.760, 170 146.158 C 170 146.556, 177.650 153.936, 187 162.558 C 196.350 171.180, 203.995 178.744, 203.988 179.367 C 203.982 179.990, 202.197 190.152, 200.021 201.950 C 197.846 213.747, 196.242 223.576, 196.458 223.791 C 196.673 224.007, 206.562 219.447, 218.432 213.659 L 240.015 203.135 261.562 213.679 C 273.413 219.479, 283.295 224.038, 283.522 223.812 C 283.749 223.585, 282.154 213.747, 279.979 201.950 C 277.803 190.152, 276.018 179.990, 276.012 179.367 C 276.005 178.744, 283.650 171.180, 293 162.558 C 302.350 153.936, 310 146.556, 310 146.158 C 310 145.760, 299.350 144.002, 286.334 142.251 C 273.317 140.500, 262.351 138.715, 261.964 138.284 C 261.576 137.853, 256.589 128.613, 250.880 117.751 C 245.171 106.889, 240.260 98.001, 239.966 98.001 C 239.673 98, 234.780 106.888, 229.093 117.750 M 642.309 99.208 C 641.756 99.918, 636.893 109.050, 631.504 119.500 C 626.115 129.950, 621.635 138.599, 621.550 138.719 C 621.465 138.840, 610.506 140.415, 597.198 142.219 C 583.889 144.024, 573 145.772, 573 146.105 C 573 146.437, 580.757 153.809, 590.239 162.486 C 604.353 175.404, 607.422 178.690, 607.169 180.616 C 607 181.910, 605.167 192.201, 603.098 203.485 C 601.028 214.768, 599.706 224, 600.161 224 C 600.616 224, 610.560 219.220, 622.259 213.378 L 643.531 202.756 664.873 213.437 C 676.612 219.311, 686.441 223.892, 686.716 223.617 C 687.126 223.207, 681.057 187.516, 679.383 180.491 C 679.005 178.907, 682.610 175.107, 696.431 162.520 C 706.071 153.741, 713.630 146.270, 713.229 145.917 C 712.828 145.564, 701.963 143.864, 689.083 142.138 C 676.204 140.412, 665.559 138.888, 665.427 138.750 C 665.295 138.613, 660.587 129.725, 654.966 119 C 649.344 108.275, 644.423 99.143, 644.030 98.708 C 643.637 98.272, 642.862 98.497, 642.309 99.208 M 417.969 247.538 C 417.267 248.384, 414.969 253.359, 412.862 258.594 C 406.514 274.368, 388.348 309, 386.421 309 C 386.177 309, 378.827 305.420, 370.089 301.045 C 361.351 296.669, 351.406 292.147, 347.989 290.996 C 341.379 288.769, 331.961 288.578, 331.277 290.656 C 330.400 293.318, 338.241 299.600, 355.330 309.927 C 365.324 315.966, 374.270 321.491, 375.212 322.204 C 376.770 323.384, 376.387 324.173, 370.937 331 C 344.458 364.175, 312.812 387.828, 280.639 398.490 C 275.062 400.338, 269.600 401.969, 268.500 402.115 C 267.400 402.261, 262.900 400.547, 258.500 398.306 C 242.831 390.328, 222.038 385.012, 206.500 385.012 C 190.645 385.012, 170.343 390.200, 153.682 398.509 C 122.824 413.897, 90.152 445.626, 61.221 488.298 L 52.500 501.163 52.246 392.976 C 52.044 307.120, 51.734 284.891, 50.746 285.280 C 50.060 285.550, 38.362 290.412, 24.750 296.085 L -0 306.400 -0 566.245 L -0 826.091 3.250 825.546 C 32.585 820.626, 108.186 818.246, 148.500 820.973 C 227.256 826.301, 299.302 840.589, 372.828 865.460 C 394.264 872.711, 421.007 883.108, 433.339 888.985 L 441.388 892.820 451.444 888.288 C 520.804 857.026, 617.988 832.034, 703 823.597 C 754.480 818.488, 812.528 818.480, 862.736 823.574 C 871.116 824.424, 879.216 825.205, 880.736 825.310 L 883.500 825.500 883.500 566.004 L 883.500 306.509 858 295.845 L 832.500 285.180 832 395.265 L 831.500 505.350 827.834 499.425 C 825.817 496.166, 820.568 488.452, 816.168 482.283 C 782.187 434.635, 747.651 404.812, 711.814 392.166 C 683.052 382.017, 651.832 384.224, 623.634 398.398 L 614.769 402.854 604.634 399.863 C 575.530 391.272, 543.881 369.854, 520.172 342.702 C 511.281 332.521, 502.501 321.135, 503.123 320.592 C 503.330 320.410, 511.457 315.459, 521.183 309.589 C 544.885 295.283, 550.281 289, 538.861 289 C 532.183 289, 524.396 291.786, 507.705 300.148 C 491.313 308.359, 494.129 309.349, 484.534 292 C 478.372 280.860, 471.211 265.601, 467.478 255.662 C 465.461 250.292, 462.181 247.490, 459.068 248.478 C 457.951 248.833, 453.562 253.187, 449.314 258.153 C 443.846 264.547, 441.431 266.735, 441.045 265.646 C 440.745 264.800, 436.996 260.034, 432.714 255.054 C 426.304 247.599, 424.427 246, 422.087 246 C 420.524 246, 418.671 246.692, 417.969 247.538 M 440.716 274 C 440.408 274.825, 439.606 277.975, 438.935 281 C 437.160 289, 430.657 307.501, 425.505 319.206 C 423.046 324.795, 421.144 329.477, 421.278 329.611 C 422.164 330.497, 437.186 340, 437.701 340 C 438.052 340, 443.147 336.987, 449.024 333.304 L 459.708 326.609 456.330 319.196 C 452.051 309.806, 444.463 287.500, 442.657 279 C 441.898 275.425, 441.024 273.175, 440.716 274 M 250 284.886 C 238.148 288.718, 230.648 294.282, 224.081 304.117 C 213.630 319.767, 213.187 341.875, 223.014 357.364 C 239.511 383.364, 274.006 387.372, 295.339 365.767 C 315.199 345.656, 314.337 314.218, 293.401 295.084 C 281.529 284.233, 264.440 280.217, 250 284.886 M 607.813 286.470 C 599.902 288.649, 594.037 292.034, 587.374 298.266 C 565.551 318.681, 567.854 353.646, 592.204 371.571 C 606.961 382.435, 628.377 383.025, 644.001 373 C 659.301 363.181, 668.033 343.838, 665.258 325.909 C 663.054 311.670, 653.219 297.247, 641.285 290.752 C 631.333 285.335, 618.086 283.640, 607.813 286.470 M 459.282 350.564 L 450.325 357.128 449.677 461.314 C 448.453 658.142, 446.844 711.662, 439.853 788 C 437.839 809.990, 437.559 808.959, 434.029 766.500 C 428.724 702.692, 427.499 653.533, 426.480 463.500 L 425.912 357.500 419.206 352.290 C 415.518 349.425, 411.970 347.175, 411.322 347.290 C 410.673 347.406, 405.646 354.475, 400.150 363 C 390.739 377.598, 382.212 389.816, 365.954 412 C 357.522 423.505, 344.460 449.336, 339.585 464.143 C 334.076 480.878, 331.793 493.725, 332.147 506 C 332.707 525.430, 332.126 537.655, 330.033 550.538 C 328.887 557.585, 328.299 563.683, 328.725 564.091 C 329.151 564.498, 336.863 569.075, 345.862 574.261 C 365.424 585.534, 370.849 589.955, 374.670 597.736 C 377.120 602.727, 377.494 604.640, 377.455 612 C 377.338 634.288, 365.375 653.770, 319.377 706.581 C 311.195 715.975, 297.377 731.844, 288.671 741.846 C 279.965 751.847, 271.499 760.725, 269.858 761.574 C 267.011 763.046, 230.699 767.066, 228.094 766.198 C 225.897 765.466, 224.864 762.122, 226.114 759.786 C 226.766 758.569, 235.553 746.454, 245.640 732.864 C 281.284 684.847, 299.997 654.545, 299.999 644.843 C 300 641.732, 299.275 640.536, 295.149 636.843 C 286.013 628.663, 265.298 620.056, 254.651 620.015 C 247.693 619.988, 244.991 622.241, 230.940 639.787 C 210.823 664.908, 115.501 785.337, 114.735 786.600 C 114.273 787.360, 118.608 788.075, 128.784 788.916 C 246.604 798.656, 356.600 832.888, 429.669 882.554 L 441.839 890.826 447.669 886.590 C 484.562 859.782, 542.373 833.517, 603.103 815.970 C 650.635 802.237, 707.355 792.345, 762.176 788.227 L 771.852 787.500 707.396 707 C 671.945 662.725, 640.962 624.515, 638.545 622.089 C 634.629 618.157, 633.552 617.627, 628.650 617.221 C 620.859 616.575, 614.146 618.380, 601.306 624.574 C 587.467 631.250, 582 636.033, 582 641.466 C 582 650.496, 601.549 681.838, 635.750 727.638 C 646.888 742.552, 656 755.655, 656 756.755 C 656 761.121, 654.216 761.359, 634.748 759.587 C 624.712 758.674, 615.032 757.457, 613.239 756.882 C 610.008 755.847, 607.875 753.537, 563.119 702.593 C 525.386 659.643, 512.473 641.378, 506.974 623.179 C 504.124 613.745, 504.480 600.744, 507.763 594.403 C 511.216 587.735, 519.678 581.084, 537.457 571.062 L 554.201 561.624 553.580 558.062 C 550.537 540.614, 549.852 533.175, 550.072 520 C 550.438 498.110, 550.197 493.779, 548.031 483.408 C 545.295 470.306, 540.031 455.009, 533.675 441.692 C 526.535 426.733, 522.028 419.553, 507.504 400 C 496.767 385.544, 474.479 352.622, 471.117 346.250 C 470.464 345.012, 469.549 344, 469.084 344 C 468.619 344, 464.208 346.954, 459.282 350.564 M 679.296 472.095 C 680.813 515.456, 693.064 556.810, 721.483 614.500 C 744.282 660.780, 767.189 699.583, 811.361 766.750 L 824.021 786 828.011 786 L 832 786 832 673.888 L 832 561.777 825.358 552.138 C 803.147 519.908, 777.016 493.115, 752.733 477.671 C 732.404 464.742, 710.064 457.058, 687.949 455.389 L 678.687 454.689 679.296 472.095 M 179.597 457.607 C 137.444 465.219, 96.333 496.345, 59.131 548.815 L 52 558.873 52 672.436 L 52 786 56.260 786 L 60.520 786 78.148 758.750 C 109.904 709.660, 128.238 678.776, 147.455 642 C 176.329 586.743, 191.233 547.843, 198.602 508.500 C 200.628 497.688, 201.342 490.117, 201.742 475.250 L 202.259 456 194.879 456.090 C 190.821 456.139, 183.944 456.822, 179.597 457.607" stroke="none" fill="#ffffff" fill-rule="evenodd"/>
</svg>